<?xml version="1.0" standalone="no"?>
<!DOCTYPE svg PUBLIC "-//W3C//DTD SVG 20010904//EN"
 "http://www.w3.org/TR/2001/REC-SVG-20010904/DTD/svg10.dtd">
<svg version="1.0" xmlns="http://www.w3.org/2000/svg"
 width="300.000000pt" height="251.000000pt" viewBox="0 0 300.000000 251.000000"
 preserveAspectRatio="xMidYMid meet">
<metadata>
Created by potrace 1.10, written by Peter Selinger 2001-2011
</metadata>
<g transform="translate(0.000000,251.000000) scale(0.100000,-0.100000)"
fill="#000000" stroke="none">
<path d="M1950 2378 c-17 -46 -40 -102 -51 -125 -10 -24 -19 -47 -19 -53 0 -5
-11 -35 -25 -66 -28 -64 -32 -121 -10 -150 24 -31 20 -45 -56 -228 -16 -38
-29 -75 -29 -83 0 -8 -7 -28 -16 -44 -8 -17 -14 -33 -12 -35 2 -2 21 -1 41 3
28 4 42 13 53 34 8 16 14 31 14 34 0 3 0 6 1 8 0 1 2 9 4 17 2 8 15 43 29 76
14 34 27 73 30 87 8 44 30 82 49 82 19 0 77 51 77 67 0 6 13 47 30 92 16 45
45 125 65 178 34 95 44 142 26 123 -8 -10 -54 -111 -91 -205 -9 -25 -23 -58
-29 -74 -8 -20 -15 -26 -22 -19 -7 7 3 42 29 109 44 109 74 205 68 212 -3 2
-11 -9 -19 -25 -18 -34 -80 -184 -83 -198 -5 -24 -37 -91 -48 -97 -6 -4 3 -6
19 -5 25 2 30 -2 33 -23 3 -34 -30 -84 -75 -113 l-38 -24 -12 41 c-26 85 -9
155 35 144 24 -7 43 31 98 200 41 124 41 167 1 67 -16 -39 -37 -90 -47 -115
-10 -25 -27 -66 -36 -91 -11 -28 -23 -45 -30 -42 -9 3 -8 16 7 49 10 25 33 91
50 147 18 56 34 108 36 115 3 6 0 12 -5 12 -6 0 -25 -37 -42 -82z"/>
<path d="M2381 2260 c-21 -22 -47 -57 -56 -78 -10 -20 -21 -39 -24 -42 -12
-10 -111 -225 -111 -241 0 -6 -14 -43 -31 -82 -39 -88 -46 -130 -26 -161 13
-19 14 -29 4 -57 -7 -19 -16 -40 -20 -46 -6 -9 -2 -13 12 -13 11 0 36 -15 56
-34 20 -19 52 -42 73 -51 20 -10 52 -24 70 -32 31 -15 60 -43 92 -91 15 -22
18 -20 182 145 201 203 258 264 258 280 0 6 4 13 8 15 4 2 27 30 50 63 49 71
54 110 19 151 -19 22 -33 28 -72 29 -48 2 -51 1 -124 -68 -90 -84 -137 -133
-200 -207 -25 -30 -49 -56 -53 -58 -5 -2 -8 -8 -8 -14 0 -6 -15 -27 -32 -48
-18 -20 -57 -68 -87 -107 l-53 -70 -57 34 c-54 33 -69 57 -52 88 3 6 6 15 7
20 2 10 33 94 85 225 16 41 29 80 29 86 0 7 11 37 25 67 14 31 28 64 30 75 2
10 17 51 34 91 16 39 27 71 24 71 -4 0 -2 5 5 12 7 7 12 29 12 50 0 50 -19 50
-69 -2z m13 -76 c-8 -27 -19 -58 -24 -69 -10 -24 -118 -311 -156 -413 -24 -65
-28 -71 -40 -55 -18 24 -17 91 1 127 8 15 15 36 15 45 0 9 4 21 8 26 5 6 19
37 32 70 24 62 71 166 80 175 3 3 12 19 20 35 15 32 73 115 77 111 2 -2 -4
-25 -13 -52z m514 -218 c12 -15 21 -66 12 -66 -4 0 -12 -10 -18 -22 -8 -18
-11 -19 -11 -6 -1 9 4 20 9 23 15 9 -19 62 -44 69 -16 5 -18 8 -7 15 16 10 47
4 59 -13z m-38 -43 c0 -26 -28 -74 -52 -92 -49 -34 -79 -12 -53 39 29 56 105
94 105 53z m-137 -63 c-7 -28 23 -70 50 -70 12 0 36 9 54 20 24 14 31 15 26 5
-3 -8 -10 -15 -16 -15 -6 0 -8 -3 -4 -6 3 -4 1 -12 -6 -19 -7 -7 -24 -28 -39
-47 -49 -62 -144 -163 -217 -230 -28 -26 -51 -53 -51 -60 0 -6 -2 -9 -5 -6 -7
7 -70 -54 -67 -64 6 -20 -41 -5 -73 23 -37 33 -44 59 -21 78 8 7 54 65 103
129 91 121 251 294 264 287 4 -3 5 -14 2 -25z"/>
<path d="M1851 1589 c7 -4 17 -6 21 -3 4 3 16 0 26 -5 11 -6 43 -12 73 -14 30
-2 67 -9 83 -16 16 -6 34 -10 40 -7 16 6 -63 39 -96 40 -16 0 -28 4 -28 7 0 4
-30 7 -66 7 -38 0 -61 -4 -53 -9z"/>
<path d="M1650 1579 c0 -5 -5 -7 -10 -4 -10 6 -94 -20 -116 -37 -6 -4 -14 -5
-17 -1 -4 3 -7 1 -7 -5 0 -7 -3 -11 -7 -10 -12 3 -83 -35 -83 -44 0 -4 -7 -8
-15 -8 -8 0 -15 -4 -15 -9 0 -5 -17 -15 -37 -22 -53 -17 -113 -48 -113 -58 0
-5 27 0 60 10 61 19 124 48 105 49 -36 1 147 92 243 121 41 12 57 29 27 29 -8
0 -15 -5 -15 -11z"/>
<path d="M990 1515 c-12 -19 -48 -51 -81 -70 -32 -20 -59 -41 -59 -46 0 -29
91 21 151 83 59 61 78 61 99 -4 13 -40 22 -51 62 -71 39 -20 48 -22 52 -10 14
35 7 43 -39 43 l-45 0 0 55 0 55 -59 0 c-57 0 -60 -1 -81 -35z"/>
<path d="M1720 1544 c0 -5 51 -9 113 -9 88 -1 128 -6 187 -24 80 -25 164 -63
194 -90 10 -9 19 -14 20 -11 3 9 46 -35 46 -48 0 -7 5 -10 10 -7 6 3 10 1 10
-5 0 -6 4 -9 9 -5 5 3 12 1 16 -5 3 -5 11 -10 17 -10 33 0 -86 92 -181 140
-107 55 -174 71 -313 77 -72 3 -128 2 -128 -3z"/>
<path d="M264 1529 c-3 -5 -10 -7 -15 -3 -12 7 -128 -58 -155 -88 -31 -35 -65
-94 -57 -101 3 -4 2 -7 -3 -7 -17 0 -25 -159 -13 -230 8 -41 39 -110 51 -110
4 0 8 -6 8 -13 0 -13 50 -67 63 -67 3 0 23 -11 43 -25 20 -14 40 -22 44 -20 5
3 11 1 14 -3 3 -5 19 -9 36 -10 39 -1 35 18 -6 31 -65 20 -116 49 -151 87 -21
22 -38 43 -39 47 0 5 -11 30 -24 58 -44 96 -24 249 43 321 34 36 45 13 14 -28
-31 -43 -50 -92 -44 -115 4 -14 5 -13 6 5 3 69 82 161 169 197 17 8 32 17 32
20 0 8 -68 -22 -101 -45 -27 -20 -49 -20 -49 0 0 15 90 56 151 70 52 12 113
10 168 -3 39 -10 106 -59 95 -69 -2 -3 6 -12 19 -21 18 -12 44 -15 104 -12 50
2 94 -1 119 -10 40 -13 54 -12 54 6 0 6 -4 8 -9 5 -5 -4 -11 -2 -13 4 -3 11
-24 16 -93 26 -35 5 -58 2 -135 -17 -11 -3 -14 3 -12 22 2 21 -6 32 -38 53
-22 14 -44 26 -49 26 -5 0 -11 6 -13 12 -5 15 -205 22 -214 7z"/>
<path d="M1605 1516 c-88 -29 -162 -63 -171 -78 -9 -15 45 -1 66 16 22 20 145
66 174 66 13 0 28 5 31 10 10 16 -24 11 -100 -14z"/>
<path d="M290 1478 c0 -5 28 -7 63 -7 67 1 60 6 -15 11 -27 2 -48 0 -48 -4z"/>
<path d="M1019 1461 c-14 -15 -69 -59 -92 -73 -6 -4 -9 -10 -6 -13 7 -6 102
65 114 85 11 18 2 18 -16 1z"/>
<path d="M1061 1403 c-1 -32 1 -33 37 -33 l37 1 -32 14 c-17 7 -33 22 -36 32
-3 10 -5 4 -6 -14z"/>
<path d="M704 1368 c-4 -6 -3 -8 3 -5 12 8 89 -19 123 -43 15 -11 33 -33 40
-50 13 -31 34 -43 23 -12 -21 60 -167 146 -189 110z"/>
<path d="M1295 1365 c-66 -29 -105 -106 -105 -207 0 -102 69 -197 134 -184 17
4 66 9 108 12 61 5 81 11 95 27 18 21 18 21 -9 4 -16 -10 -47 -17 -78 -17 -27
0 -69 -5 -93 -12 -40 -10 -47 -9 -75 10 -63 45 -89 156 -60 254 16 54 75 105
130 112 87 11 92 13 38 14 -30 0 -68 -6 -85 -13z"/>
<path d="M1454 1368 c58 -39 78 -64 83 -108 4 -36 1 -51 -17 -73 -13 -16 -34
-33 -48 -38 -13 -5 -22 -12 -19 -15 11 -11 68 31 87 63 10 17 16 42 14 55 l-5
23 11 -24 c10 -22 -1 -199 -16 -256 -5 -18 -4 -19 6 -2 6 10 16 74 22 142 l11
125 -31 31 c-18 17 -32 35 -32 40 0 5 -19 18 -42 29 -24 11 -34 15 -24 8z"/>
<path d="M605 1355 c-16 -7 -41 -26 -55 -41 l-25 -28 32 26 c30 24 65 39 118
51 13 3 9 5 -10 5 -16 0 -43 -6 -60 -13z"/>
<path d="M295 1346 c-68 -33 -88 -69 -86 -154 1 -65 20 -109 21 -49 0 78 48
127 135 138 l50 6 -44 2 c-51 1 -109 -28 -134 -67 l-16 -27 -1 27 c0 38 17 69
53 98 25 20 42 25 88 25 33 -1 64 -6 73 -14 9 -8 19 -12 21 -9 3 3 -2 11 -10
18 -24 20 -114 23 -150 6z"/>
<path d="M1676 1351 c-3 -5 -27 -14 -52 -20 -26 -7 -44 -14 -41 -17 8 -9 107
26 107 37 0 11 -7 12 -14 0z"/>
<path d="M1744 1335 c-12 -8 -24 -11 -28 -8 -3 3 -6 0 -6 -8 0 -8 -3 -25 -6
-39 -5 -22 -3 -21 15 8 12 18 36 39 54 47 24 11 27 14 12 15 -11 0 -30 -7 -41
-15z"/>
<path d="M1855 1288 c-4 -16 -4 -32 -1 -35 3 -4 6 1 6 10 0 22 20 33 31 16 7
-11 9 -9 9 7 0 13 -8 24 -19 27 -16 4 -21 -2 -26 -25z"/>
<path d="M2360 1302 c0 -13 4 -21 8 -18 10 6 94 -116 117 -169 47 -112 59
-168 59 -290 0 -143 -12 -205 -60 -305 -70 -144 -173 -255 -302 -327 -109 -60
-255 -102 -335 -95 -17 1 -26 -2 -22 -8 6 -9 48 -7 115 5 8 1 35 6 60 10 25 4
50 10 55 13 6 4 15 7 20 8 23 4 114 50 165 85 76 52 119 93 176 169 167 222
191 518 64 774 -23 45 -58 101 -80 126 -35 40 -39 42 -40 22z"/>
<path d="M2025 1249 c3 -30 9 -76 13 -104 l8 -50 42 89 c23 49 41 90 39 92 -1
1 -18 -27 -37 -63 l-35 -65 -6 34 c-4 18 -9 50 -12 71 -8 60 -17 56 -12 -4z"/>
<path d="M2440 1281 c0 -5 6 -13 13 -20 36 -29 134 -271 129 -316 -2 -19 -1
-19 9 -1 9 15 8 32 -5 73 -10 30 -19 64 -21 75 -3 12 -8 24 -12 27 -5 3 -9 12
-11 20 -10 46 -102 175 -102 142z"/>
<path d="M530 1275 c0 -6 14 -26 30 -45 17 -19 26 -26 21 -15 -16 30 -51 71
-51 60z"/>
<path d="M1373 1259 c-30 -11 -55 -52 -51 -84 l3 -26 45 23 c37 19 46 28 48
54 3 35 -11 46 -45 33z m29 -35 c-3 -20 -37 -54 -53 -54 -24 0 -20 33 6 56 32
27 52 26 47 -2z"/>
<path d="M930 1241 c5 -11 10 -59 9 -108 -1 -78 -3 -85 -15 -68 -8 11 -14 43
-14 79 0 34 -5 68 -10 76 -11 18 -12 -49 -2 -120 6 -36 13 -47 35 -58 15 -7
27 -18 27 -25 0 -18 63 -57 91 -56 l24 1 -26 7 c-80 25 -99 63 -99 197 0 78
-3 94 -15 94 -12 0 -13 -4 -5 -19z"/>
<path d="M1060 1243 c0 -10 5 -25 10 -33 8 -12 10 -9 10 12 0 21 5 27 28 31
22 3 20 4 -10 6 -30 1 -38 -3 -38 -16z"/>
<path d="M1901 1209 c5 -28 11 -54 15 -58 4 -3 4 12 1 34 -4 22 -7 48 -7 58 0
9 -4 17 -9 17 -4 0 -4 -23 0 -51z"/>
<path d="M638 1234 c-16 -8 -28 -19 -28 -24 0 -5 15 0 34 11 23 13 43 18 60
13 37 -9 32 -20 -11 -28 -52 -8 -100 -40 -125 -82 -12 -21 -26 -33 -34 -30
-18 7 -18 2 3 -37 l17 -32 6 43 c11 77 101 141 182 130 35 -6 36 5 2 31 -31
24 -68 26 -106 5z"/>
<path d="M2171 1091 c-45 -89 -81 -167 -81 -173 0 -7 21 28 45 77 25 50 49 97
54 105 24 40 71 144 67 147 -2 3 -41 -68 -85 -156z"/>
<path d="M1717 1228 c-13 -10 -20 -40 -28 -126 -6 -64 -7 -117 -3 -122 5 -5
10 32 12 83 1 51 7 107 13 126 11 33 12 33 57 28 42 -5 45 -4 27 9 -23 17 -56
18 -78 2z"/>
<path d="M66 1163 c13 -103 75 -195 156 -232 72 -32 79 -25 10 10 -89 44 -152
138 -152 225 0 18 -4 36 -10 39 -6 4 -8 -11 -4 -42z"/>
<path d="M725 1168 c-50 -29 -60 -90 -17 -96 28 -4 72 33 72 59 0 46 -18 58
-55 37z m41 -23 c6 -42 -43 -78 -67 -49 -9 11 -8 18 2 32 34 44 60 51 65 17z"/>
<path d="M1065 1138 c4 -24 9 -46 11 -50 8 -12 54 -10 54 3 0 5 -4 8 -9 5 -22
-14 -41 7 -41 45 0 21 -5 39 -10 39 -7 0 -9 -15 -5 -42z"/>
<path d="M1320 1132 c0 -17 47 -52 69 -52 27 0 61 17 61 31 0 5 -11 2 -25 -7
-21 -14 -31 -15 -50 -6 -35 16 -31 31 6 27 18 -3 39 0 48 5 11 7 -3 9 -46 10
-35 0 -63 -4 -63 -8z"/>
<path d="M1922 1105 c0 -22 4 -53 8 -70 l8 -30 0 30 c1 17 -3 48 -7 70 l-9 40
0 -40z"/>
<path d="M257 1123 c-4 -3 -7 -17 -7 -30 0 -18 10 -28 43 -43 23 -11 52 -20
63 -20 34 0 106 28 120 48 21 27 16 35 -8 12 -36 -34 -86 -51 -128 -44 -47 8
-84 39 -77 65 5 20 4 23 -6 12z"/>
<path d="M752 1034 c-24 -49 -24 -75 1 -29 l14 27 13 -31 c12 -30 46 -58 57
-48 2 3 -5 8 -16 12 -12 3 -24 18 -27 33 -21 92 -17 89 -42 36z"/>
<path d="M540 995 c-28 -30 -65 -51 -124 -71 -40 -13 -40 -13 -6 -8 40 6 115
41 132 61 9 11 14 11 31 -4 19 -17 20 -17 10 2 -6 11 -12 26 -14 33 -3 9 -12
5 -29 -13z"/>
<path d="M1941 951 c-1 -28 -10 -60 -27 -88 -14 -25 -23 -47 -21 -50 3 -3 19
22 35 54 25 49 29 65 22 94 l-8 34 -1 -44z"/>
<path d="M1385 950 c-22 -5 -13 -7 37 -8 37 0 72 -3 78 -7 7 -4 9 -23 6 -49
l-5 -41 11 38 c8 31 8 42 -3 53 -17 17 -83 24 -124 14z"/>
<path d="M1320 927 c-54 -26 -88 -148 -90 -319 0 -38 -4 -68 -9 -68 -6 0 -9
26 -8 58 1 68 -10 132 -24 132 -6 0 -6 -7 1 -19 5 -11 10 -54 10 -96 0 -72 11
-115 29 -115 4 0 11 65 15 144 8 171 23 224 74 266 40 33 40 36 2 17z"/>
<path d="M592 901 c-29 -16 -62 -40 -73 -53 -63 -72 -78 -196 -35 -290 32 -72
82 -121 126 -126 23 -2 23 -1 -5 11 -138 64 -178 283 -73 402 59 68 191 94
277 55 56 -26 64 -25 22 2 -25 16 -53 22 -110 25 -69 4 -81 1 -129 -26z"/>
<path d="M2046 844 c-15 -31 -25 -58 -23 -61 2 -2 17 21 32 52 16 30 26 57 24
60 -3 2 -17 -21 -33 -51z"/>
<path d="M1380 830 c-30 -30 -25 -40 20 -40 39 0 40 -1 40 -34 0 -19 4 -37 8
-40 5 -3 6 14 3 37 -5 32 -11 42 -29 47 -13 3 -23 9 -23 15 -1 15 34 23 54 13
10 -5 17 -5 17 1 0 5 -7 12 -16 15 -29 11 -54 6 -74 -14z"/>
<path d="M2605 840 c-8 -13 -3 -80 7 -80 4 0 8 20 8 45 0 45 -4 54 -15 35z"/>
<path d="M268 810 c-101 -63 -126 -140 -65 -206 24 -26 53 -42 120 -65 49 -16
92 -27 97 -24 4 3 32 -20 61 -51 64 -67 101 -86 191 -101 42 -6 149 12 188 32
21 11 29 11 44 -1 10 -7 23 -11 27 -8 5 3 9 1 9 -5 0 -12 100 -7 109 5 8 12
29 10 65 -5 23 -9 31 -9 38 1 7 10 16 4 36 -21 45 -57 134 -151 144 -151 5 0
20 -11 34 -24 33 -30 159 -97 168 -89 3 3 6 1 6 -6 0 -7 5 -9 10 -6 6 3 10 1
10 -5 0 -7 6 -10 13 -7 6 2 36 -4 66 -15 58 -19 91 -23 91 -10 0 4 -34 16 -76
26 -42 9 -84 21 -93 25 -115 57 -155 80 -208 119 -34 26 -65 55 -68 65 -4 9
-10 15 -15 12 -5 -3 -11 3 -15 14 -3 11 -22 34 -41 50 -27 24 -31 31 -17 32
13 0 12 3 -7 11 -14 6 -81 13 -150 15 -159 4 -202 7 -217 16 -6 4 -35 2 -63
-4 -29 -6 -68 -9 -86 -6 -20 3 -34 2 -34 -4 0 -7 29 -9 75 -7 41 2 75 6 75 9
0 3 7 6 15 6 30 0 8 -22 -31 -30 -71 -15 -224 15 -224 45 0 5 -4 7 -8 4 -4 -2
-16 8 -26 23 -11 15 -33 38 -51 50 -31 21 -101 47 -117 43 -14 -3 -113 44
-126 60 -7 9 -15 31 -18 50 -5 28 0 39 28 68 19 19 48 46 66 60 31 24 41 40
25 40 -5 0 -29 -14 -55 -30z"/>
<path d="M661 802 c-53 -27 -75 -64 -75 -125 1 -69 31 -120 85 -141 22 -9 47
-16 57 -16 26 1 102 38 102 50 0 6 -13 2 -29 -9 -35 -25 -111 -28 -145 -6 -36
24 -60 86 -53 142 4 38 12 53 38 75 47 39 94 46 141 20 21 -11 38 -16 38 -11
0 14 -63 39 -97 39 -15 0 -43 -8 -62 -18z"/>
<path d="M1064 799 c22 -5 54 -19 73 -30 19 -12 36 -19 39 -16 9 9 -99 57
-125 56 -20 -1 -16 -3 13 -10z"/>
<path d="M1592 759 c-31 -21 -72 -84 -72 -111 0 -7 9 5 19 27 23 51 60 85 103
95 27 7 29 8 8 9 -14 0 -40 -9 -58 -20z"/>
<path d="M964 685 c-17 -13 -17 -14 -2 -15 9 0 20 5 23 10 3 6 19 10 36 10 27
0 43 -19 17 -21 -7 0 0 -5 16 -10 39 -11 47 -2 17 22 -28 23 -80 25 -107 4z"/>
<path d="M1355 692 c-3 -3 -5 -17 -4 -31 0 -23 1 -24 8 -6 5 11 21 22 37 26
l29 5 -33 5 c-17 3 -34 3 -37 1z"/>
<path d="M1672 673 c-15 -6 -42 -56 -42 -77 0 -22 68 2 87 31 26 39 1 65 -45
46z m38 -28 c0 -13 -37 -45 -52 -45 -15 0 -8 30 12 50 21 21 40 19 40 -5z"/>
<path d="M2588 675 c-6 -11 -38 -108 -42 -128 -6 -25 -27 -71 -47 -98 -11 -16
-18 -29 -14 -29 3 0 -8 -15 -24 -32 -17 -18 -31 -36 -31 -40 0 -8 -43 -53
-123 -126 -46 -43 -144 -97 -222 -123 -22 -7 -44 -16 -50 -20 -5 -3 -30 -9
-55 -13 -25 -4 -52 -11 -60 -17 -17 -12 70 -2 108 12 13 5 37 11 53 14 34 6
131 52 140 67 3 5 9 9 13 9 10 -2 112 75 150 113 44 45 129 156 119 156 -4 0
-3 4 3 8 14 9 57 92 48 92 -4 0 -2 6 4 13 6 6 10 14 10 17 -1 3 7 29 16 58 16
47 18 91 4 67z"/>
<path d="M1043 625 c-47 -33 -52 -85 -9 -85 33 0 65 35 63 67 -3 33 -23 40
-54 18z m37 -22 c0 -23 -11 -38 -32 -46 -24 -9 -33 10 -17 39 15 28 49 33 49
7z"/>
<path d="M1351 548 c0 -49 2 -88 7 -88 4 0 6 28 4 62 -5 107 -9 117 -11 26z"/>
<path d="M912 608 c-7 -7 -12 -18 -12 -25 0 -7 -7 -13 -16 -13 -11 0 -14 -5
-10 -16 19 -51 18 -61 -16 -89 -18 -15 -26 -24 -18 -21 8 3 23 9 33 12 9 4 17
11 17 18 0 6 10 0 21 -14 l21 -25 -17 29 c-20 34 -16 123 6 137 7 4 11 10 8
13 -3 3 -11 0 -17 -6z"/>
<path d="M1800 593 c-13 -10 -45 -23 -70 -29 -29 -8 -36 -13 -20 -13 17 -1 21
-4 13 -12 -15 -15 -58 -7 -58 11 0 8 -8 16 -18 18 -16 3 -17 1 -8 -17 6 -11
16 -23 21 -26 23 -14 68 -7 91 14 13 12 38 33 54 46 35 28 31 33 -5 8z"/>
<path d="M1068 504 c-20 -37 -36 -55 -58 -62 -16 -6 -30 -13 -30 -16 0 -13 57
17 78 42 16 18 26 23 29 15 2 -7 12 -21 21 -31 9 -10 13 -12 7 -4 -5 8 -12 35
-15 61 l-6 46 -26 -51z"/>
<path d="M1520 519 c0 -9 15 -31 33 -50 17 -20 25 -26 16 -15 -9 12 -24 35
-32 51 -9 17 -16 23 -17 14z"/>
<path d="M1192 466 c-42 -30 -55 -45 -20 -23 15 9 34 17 42 17 7 0 16 7 20 15
7 21 -3 18 -42 -9z"/>
<path d="M1776 435 c-11 -8 -29 -15 -40 -15 -12 0 -28 -5 -36 -11 -11 -7 -5
-9 24 -5 21 2 48 14 60 25 24 24 20 27 -8 6z"/>
<path d="M1240 379 c0 -19 125 -135 191 -178 100 -65 251 -113 349 -110 25 1
14 5 -35 14 -38 7 -84 16 -102 19 -111 21 -304 142 -354 222 -20 33 -49 52
-49 33z"/>
<path d="M1740 38 c0 -10 137 -11 144 0 2 4 -29 8 -70 8 -41 0 -74 -3 -74 -8z"/>
</g>
</svg>
